<svg xmlns="http://www.w3.org/2000/svg" width="75" height="75" fill="none" viewBox="0 0 75 75">
  <path fill="#B6B8BE" d="M8.815 15.066c.233.196.517.294.799.294.344 0 .689-.147.935-.43a1.24 1.24 0 0 0-.123-1.733 1.227 1.227 0 0 0-1.734.123 1.233 1.233 0 0 0 .123 1.746ZM6.037 54.262a1.232 1.232 0 0 0-.37 1.697c.234.369.64.565 1.034.565.233 0 .467-.061.676-.196.566-.37.725-1.132.369-1.697a1.237 1.237 0 0 0-1.709-.369Zm2.816 4.033a1.228 1.228 0 0 0-.124 1.733c.234.283.578.418.922.418.296 0 .578-.098.812-.294a1.24 1.24 0 0 0 .122-1.734 1.227 1.227 0 0 0-1.732-.123Zm5.077 3.467h.012a1.242 1.242 0 0 0-1.745.123 1.237 1.237 0 0 0 .934 2.04 1.227 1.227 0 0 0 .8-2.164Zm3.8 2.84a1.231 1.231 0 0 0-1.697.369 1.227 1.227 0 0 0 .368 1.697c.21.135.43.196.664.196.406 0 .8-.197 1.033-.565a1.22 1.22 0 0 0-.369-1.697Zm-16.5-26.68a1.241 1.241 0 0 0 1.229-1.23c0-.688-.554-1.23-1.23-1.23-.675 0-1.229.542-1.229 1.23 0 .676.554 1.23 1.23 1.23Zm4.228 12.553a1.233 1.233 0 0 0-1.635-.602 1.222 1.222 0 0 0-.602 1.623c.21.455.651.725 1.12.725.171 0 .343-.036.516-.122a1.223 1.223 0 0 0 .601-1.624ZM3.8 46.037a1.215 1.215 0 0 0-1.526-.824 1.23 1.23 0 0 0-.836 1.524c.16.53.652.886 1.18.886.111 0 .234-.025.345-.062a1.222 1.222 0 0 0 .836-1.524Zm41.237 22.475a1.215 1.215 0 0 0-.824 1.525c.16.528.639.873 1.18.873a1.232 1.232 0 0 0 1.18-1.574 1.229 1.229 0 0 0-1.536-.824Zm-4.623 1.008a1.217 1.217 0 0 0-1.046 1.39 1.229 1.229 0 0 0 1.218 1.045c.06 0 .122 0 .185-.013h-.014a1.224 1.224 0 1 0-.343-2.422Zm9.062-2.667a1.223 1.223 0 0 0-.603 1.622 1.21 1.21 0 0 0 1.119.714c.172 0 .343-.038.503-.112.615-.282.898-1.008.603-1.622a1.211 1.211 0 0 0-1.622-.602ZM1.401 33.004c.061.012.11.012.173.012a1.23 1.23 0 0 0 .172-2.447 1.216 1.216 0 0 0-1.39 1.046 1.224 1.224 0 0 0 1.045 1.389Zm52.23 31.561a1.233 1.233 0 0 0-.37 1.71 1.233 1.233 0 0 0 1.698.356c.578-.37.738-1.119.369-1.697a1.232 1.232 0 0 0-1.697-.369ZM30.959 69.52a1.223 1.223 0 0 0-1.39 1.045 1.232 1.232 0 0 0 1.23 1.402c.59 0 1.119-.443 1.205-1.057a1.225 1.225 0 0 0-1.045-1.39Zm-4.623-.995a1.232 1.232 0 0 0-1.525.835c-.197.652.172 1.34.824 1.525h.012a1.236 1.236 0 0 0 1.525-.836 1.241 1.241 0 0 0-.836-1.525Zm9.357 1.327c-.69 0-1.23.553-1.23 1.23 0 .676.54 1.23 1.23 1.23.676 0 1.23-.554 1.23-1.23 0-.677-.554-1.23-1.23-1.23Zm-13.808-2.976a1.224 1.224 0 0 0-1.623.603 1.238 1.238 0 0 0 .602 1.636A1.232 1.232 0 0 0 22.5 68.5a1.218 1.218 0 0 0-.614-1.624ZM49.426 6.434c.16.074.344.11.503.11.469 0 .91-.257 1.12-.712a1.237 1.237 0 0 0-.602-1.636c-.615-.27-1.353 0-1.636.615-.27.615 0 1.34.615 1.623Zm7.992 55.291a1.217 1.217 0 0 0-.123 1.734c.246.282.577.418.922.418.295 0 .577-.098.811-.295.517-.443.566-1.23.123-1.734a1.228 1.228 0 0 0-1.733-.123ZM53.582 8.709a1.222 1.222 0 0 0 1.697-.37 1.219 1.219 0 0 0-.369-1.696 1.221 1.221 0 0 0-1.697.369 1.232 1.232 0 0 0 .369 1.697Zm-8.594-3.923c.11.038.22.05.33.05.542 0 1.035-.344 1.195-.885a1.233 1.233 0 0 0-.837-1.525 1.231 1.231 0 0 0-1.524.836c-.197.651.184 1.34.836 1.524Zm-4.636-.995a1.23 1.23 0 1 0 .345-2.437 1.23 1.23 0 0 0-.345 2.437Zm-4.733-.332h.011c.678 0 1.23-.554 1.23-1.23A1.243 1.243 0 0 0 35.62 1c-.676 0-1.23.553-1.23 1.23 0 .675.553 1.229 1.23 1.229Zm31.894 23.815a1.22 1.22 0 0 0 1.167.886c.123 0 .234-.025.356-.05a1.243 1.243 0 0 0 .837-1.524v-.012a1.234 1.234 0 0 0-1.537-.824 1.214 1.214 0 0 0-.823 1.524Zm-65.251.886a1.232 1.232 0 0 0 1.525-.836 1.238 1.238 0 0 0-.837-1.525 1.238 1.238 0 0 0-1.523.848v-.012c-.185.652.183 1.34.835 1.525Zm55.119-16.611c.233.197.516.295.798.295.345 0 .69-.135.936-.418a1.239 1.239 0 0 0-.124-1.734 1.228 1.228 0 0 0-1.734.124 1.217 1.217 0 0 0 .124 1.733Zm8.471 11.287c.209.455.652.725 1.119.725a1.1 1.1 0 0 0 .504-.122 1.224 1.224 0 0 0 .603-1.624h.012a1.238 1.238 0 0 0-1.636-.602 1.224 1.224 0 0 0-.602 1.623Zm-59.84-3.738c.197.135.43.197.664.197.406 0 .8-.197 1.032-.566a1.227 1.227 0 0 0-.368-1.696 1.215 1.215 0 0 0-1.697.368 1.22 1.22 0 0 0 .369 1.697ZM3.811 23.5c.16.073.333.11.504.11.467 0 .91-.27 1.12-.725a1.224 1.224 0 0 0-.603-1.623 1.234 1.234 0 0 0-1.636.602 1.233 1.233 0 0 0 .615 1.636ZM30.726 3.803c.06 0 .11 0 .171-.012a1.23 1.23 0 1 0-.172.012ZM13.094 11.88c.283 0 .565-.097.8-.294.515-.455.577-1.23.122-1.746a1.225 1.225 0 0 0-1.733-.111 1.227 1.227 0 0 0-.124 1.734c.247.27.591.418.934.418ZM25.93 4.848a1.221 1.221 0 0 0 1.168-1.574 1.232 1.232 0 0 0-1.524-.836 1.227 1.227 0 0 0-.824 1.537c.16.529.639.873 1.18.873ZM17.016 8.93c.234 0 .467-.061.664-.196a1.22 1.22 0 0 0 .369-1.697 1.231 1.231 0 1 0-2.065 1.34 1.23 1.23 0 0 0 1.032.553Zm4.315-2.36a1.225 1.225 0 0 0 1.107-1.734 1.22 1.22 0 0 0-1.623-.615 1.233 1.233 0 0 0-.615 1.635c.21.455.665.713 1.131.713ZM1.746 42.803a1.224 1.224 0 0 0 1.044-1.39 1.23 1.23 0 1 0-1.216 1.402c.061 0 .123 0 .172-.012ZM70.33 31.744l.092.007c.051.003.102.006.153.011.039.004.077.01.115.015l.126.016c.043.006.085.014.128.022l.008.001a1.243 1.243 0 0 0-.01-.263 1.218 1.218 0 0 0-1.39-1.045 1.23 1.23 0 0 0-1.016 1.479 4.91 4.91 0 0 1 1.794-.243ZM67.5 49.811a1.222 1.222 0 0 0-1.623.603 1.233 1.233 0 0 0 .602 1.635 1.232 1.232 0 0 0 1.635-.615c.283-.614 0-1.34-.615-1.623Zm1.026-8.49c-.002.01-.005.02-.006.031a1.23 1.23 0 0 0 1.046 1.39c.06 0 .122.012.171.012a1.23 1.23 0 0 0 1.218-1.058v-.012c.01-.064.012-.128.011-.191a4.907 4.907 0 0 1-2.44-.172Zm-3.228 12.892a1.221 1.221 0 0 0-1.696.368 1.231 1.231 0 0 0 1.033 1.894c.405 0 .8-.197 1.033-.566a1.216 1.216 0 0 0-.37-1.696Zm3.752-9.073a1.238 1.238 0 0 0-1.526.835c-.196.652.184 1.34.836 1.525a1.232 1.232 0 0 0 1.525-.836 1.237 1.237 0 0 0-.836-1.525Zm-7.39-29.816c.283 0 .565-.099.799-.296.516-.454.577-1.23.122-1.733v-.012a1.237 1.237 0 0 0-1.732-.124 1.255 1.255 0 0 0-.124 1.747c.246.27.59.418.934.418Zm.836 42.922a1.239 1.239 0 0 0-1.734.122 1.238 1.238 0 0 0 .934 2.041c.345 0 .69-.147.922-.43a1.216 1.216 0 0 0-.122-1.733Zm2.114-38.988c.221 0 .455-.074.664-.21a1.227 1.227 0 0 0 .369-1.696 1.228 1.228 0 0 0-1.697-.356c-.577.356-.737 1.119-.368 1.696.233.357.627.566 1.032.566Z"/>
  <path fill="#48BBEE" d="M39.899 12.431Zm3.869 1.006a24.535 24.535 0 0 1 5.523 2.755h-.006a24.702 24.702 0 0 1 4.654 4.029l.001-.004c.427.474.832.966 1.22 1.472.292.38.571.766.84 1.162l.062.092a24.876 24.876 0 0 1 1.327 2.21v.003a24.428 24.428 0 0 1 2.674 8.547.418.418 0 0 1-.175-.01l-7.897-2.51.369 1.638c.077.343.289.627.594.8.306.173.658.207.991.097l.912-.302a.41.41 0 0 1 .539.389v2.228c0 .909-.43 1.763-1.16 2.304l-2.346 1.886a.82.82 0 0 1-1.17-.147l-3.794-5.06a3.28 3.28 0 0 0-1.586-1.143l-1.488-.496 6.203 8.055c.557.464 1.275.71 2.032.658l1.164-.08a.421.421 0 0 1 .334.136c.084.094.12.222.098.346l-.479 2.639a.41.41 0 0 1-.123.225L48.28 49.88l-3.589 9.07a.408.408 0 0 1-.268.244 4.905 4.905 0 0 1-3.775-.439 4.858 4.858 0 0 1-2.326-2.965c-.277-1.003-.411-1.672-.411-2.044v-3.421l-.554-.213a7.798 7.798 0 0 1-3.263-2.375l-1.268-1.57-5.448.972c-.234.042-.47.059-.702.055a24.632 24.632 0 0 0 10.1 14.023c-.371.016-.744.028-1.12.028 13.581 0 24.59-11.01 24.59-24.59 0-10.738-6.883-19.867-16.477-23.219Z"/>
  <path fill="#48BBEE" d="M32.203 31.297a4.49 4.49 0 0 1 2.483.75l2.105 1.393c.42.279.946.348 1.425.188L42 32.362l.634-.572a1.805 1.805 0 0 0 .144-2.527l-4 1.187a.41.41 0 0 1-.395-.091l-2.687-2.46a.403.403 0 0 0-.433-.076.404.404 0 0 0-.253.359l.232 1.825a.41.41 0 0 1-.68.356l-2.23-1.978a2.048 2.048 0 0 0-2.35.311l-.713 1.792a1.64 1.64 0 0 1-.543.707l-1.132.846 3.819-.674c.263-.047.527-.07.79-.07Zm4.61-19.204.17.01-.17-.01Zm10.644 14.572a.816.816 0 0 0 .6-.263.827.827 0 0 0 .199-.402h.003a.814.814 0 0 0-.141-.638l-2.098-2.878a.82.82 0 1 0-1.324.966l2.098 2.878c.16.22.41.337.663.337Zm-6.475-14.019Zm-.553-.116.264.054-.264-.054Zm-4.204-.457.17.005-.17-.005Zm7.122 1.221Zm-5.812-1.158.082.008-.082-.008Zm4.599.794Zm-.482-.127Zm1.338 14.649c.001-.002.004-.003.006-.004l1.276-.944c.053-.039.086-.091.126-.14l.023-.007a.817.817 0 0 0-1.124-1.171l-1.058.783h-2.007a.82.82 0 1 0 0 1.639h2.276a.82.82 0 0 0 .481-.156Zm-4.336-15.204.201.024-.201-.024Zm.712.096.193.03-.193-.03Zm-1.277-.159Z"/>
  <path fill="#0E94D7" d="M26.675 47.195a3.674 3.674 0 0 1-2.803-1.358l-.057-.07a3.65 3.65 0 0 1-.148-.203l-.596-.888a6.14 6.14 0 0 1-.986-4.26l.004-.036c.01-.072.025-.143.038-.215.012-.063.02-.126.034-.19.006-.03.015-.06.022-.09.024-.102.047-.205.076-.306v-.002l.003-.006c.004-.015.01-.03.014-.047.073-.246.159-.489.263-.727l.017-.038a6.19 6.19 0 0 1 .161-.338L23.973 36l-.018-.845a2.85 2.85 0 0 1 2.023-2.806l-1.114-.31a2.048 2.048 0 0 1-1.497-1.865l-.06-1.095a2.048 2.048 0 0 1 1.83-2.148l1.093-.116v-1.937c0-.128.06-.25.163-.326l3.259-2.46a2.03 2.03 0 0 0 .542-.617l.561-.978-3.642.715a.409.409 0 0 1-.49-.402v-1.124c0-1.12.5-2.167 1.374-2.871l5.133-4.14a.41.41 0 0 1 .462-.036l3.593 2.07a.413.413 0 0 0 .315.04.4.4 0 0 0 .248-.198l1.372-2.234.002-.003a24.442 24.442 0 0 1 10.163 3.88.06.06 0 0 0 .006-.001 24.526 24.526 0 0 0-5.523-2.755l-.022-.008a23.597 23.597 0 0 0-.399-.135l-.058-.02a24.454 24.454 0 0 0-1.637-.471c-.065-.017-.13-.032-.196-.048a24.648 24.648 0 0 0-.474-.11l-.289-.063-.264-.052a25.114 25.114 0 0 0-.87-.156l-.193-.03c-.17-.026-.34-.05-.51-.072l-.202-.025a23.314 23.314 0 0 0-.367-.042l-.198-.02c-.157-.016-.314-.03-.472-.042l-.082-.007a24.641 24.641 0 0 0-.553-.035l-.17-.008a26.235 26.235 0 0 0-.417-.016l-.17-.005a28.35 28.35 0 0 0-.57-.006c-13.58 0-24.59 11.01-24.59 24.59s11.01 24.59 24.59 24.59c.376 0 .749-.012 1.12-.028a24.633 24.633 0 0 1-10.1-14.023Zm-4.013-26.119a.819.819 0 0 1 1.128-.269l1.31.805a.82.82 0 0 1 .371.876l-.579 2.609a.82.82 0 0 1-1.6-.356l.452-2.038-.812-.5a.82.82 0 0 1-.27-1.127Z"/>
  <path fill="#00E389" d="M48.056 26.402Zm-3.141 15.217-.09.135a3.279 3.279 0 0 1-2.727 1.46h-9.606c-1.096 0-2.12.547-2.728 1.46l-1.543 2.315-.843.15 5.447-.972 1.268 1.57a7.799 7.799 0 0 0 3.263 2.375l.554.213v3.421c0 .373.134 1.041.411 2.045a4.858 4.858 0 0 0 2.326 2.965 4.905 4.905 0 0 0 3.775.438.408.408 0 0 0 .269-.243l3.588-9.07 4.803-4.526a.41.41 0 0 0 .122-.225l.479-2.638a.411.411 0 0 0-.098-.346.42.42 0 0 0-.334-.136l-1.163.08a2.854 2.854 0 0 1-2.033-.658l-3.535-.525a1.64 1.64 0 0 0-1.605.712Zm-2.406-14.011Zm14.06 3.246.522 1.95-5.1-1.62 7.897 2.51a.42.42 0 0 0 .175.008 24.428 24.428 0 0 0-2.675-8.546l-.77 2.561a5.739 5.739 0 0 0-.05 3.137ZM56 22.85l.063.093L56 22.85Zm.78 1.226ZM36.791 33.44l-2.105-1.393 2.772 1.834 4.544-1.519-3.786 1.266a1.64 1.64 0 0 1-1.425-.188Zm2.329-21.124.043.005a24.45 24.45 0 0 1 3.91.89c.091.03.18.065.27.095.518.17 1.029.355 1.53.558.168.067.331.143.497.215.42.18.835.369 1.242.572.187.094.371.192.556.29a24.49 24.49 0 0 1 1.67.972c.142.09.277.189.417.282-10.025.464-18.481 6.927-21.86 15.883l.2-.038 1.133-.845a1.64 1.64 0 0 0 .542-.707l.713-1.792a2.048 2.048 0 0 1 2.35-.31l2.231 1.977a.41.41 0 0 0 .679-.356l-.231-1.825a.404.404 0 0 1 .253-.359.403.403 0 0 1 .433.076l2.687 2.46a.411.411 0 0 0 .394.09l4-1.186-2.205.654-.208-.37a1.587 1.587 0 0 1 .301-1.939h-.435a.82.82 0 1 1 0-1.64h2.007l1.058-.782a.82.82 0 0 1 1.124 1.17l1.07-.356h1.064l.239.328-2.098-2.877a.82.82 0 1 1 1.324-.967l2.098 2.878c.14.191.182.422.14.637l1.631-.45a3.28 3.28 0 0 0 2.007-1.588l2.042-3.74a24.71 24.71 0 0 0-4.654-4.028 24.437 24.437 0 0 0-10.163-3.88l-.001.003Z"/>
  <path fill="#0BB" d="m22.932 22.204.812.498-.453 2.04a.82.82 0 0 0 1.6.355l.58-2.61a.82.82 0 0 0-.371-.875l-1.31-.805a.82.82 0 1 0-.858 1.397Z"/>
  <path fill="#0BB" d="M27.395 32.079c3.379-8.956 11.835-15.42 21.86-15.884-.14-.093-.275-.192-.417-.282a24.552 24.552 0 0 0-1.67-.971c-.184-.098-.369-.197-.557-.29a24.452 24.452 0 0 0-1.241-.573c-.166-.072-.329-.147-.496-.215a24.455 24.455 0 0 0-1.53-.558c-.092-.03-.18-.065-.272-.094a24.446 24.446 0 0 0-3.91-.89c-.014-.003-.028-.003-.042-.005l-1.372 2.234a.412.412 0 0 1-.563.158l-3.594-2.07a.41.41 0 0 0-.462.036l-5.132 4.14a3.67 3.67 0 0 0-1.374 2.87v1.124a.409.409 0 0 0 .49.402l3.642-.714-.561.978c-.138.242-.32.45-.543.617l-3.258 2.46a.408.408 0 0 0-.164.326v1.937l-1.092.116a2.048 2.048 0 0 0-1.83 2.147l.06 1.096c.047.88.648 1.628 1.497 1.865l1.113.31 1.418-.27Zm-5.235 7.897.024-.09-.023.09Zm.378-1.178.02-.039-.02.039Zm-.448 1.582c.01-.072.024-.143.038-.215-.013.072-.028.143-.039.215Zm.17-.802.001-.007-.002.007Zm.225 3.999a6.143 6.143 0 0 1-.358-1.237 6.187 6.187 0 0 1-.1-1.149 6.11 6.11 0 0 1 .029-.506 6.14 6.14 0 0 0 .43 2.892Z"/>
  <path fill="#FFEDB9" d="m49.89 25.55-1.631.45h-.003a.829.829 0 0 1-.317.508.816.816 0 0 1-1.145-.18l-.24-.328h-1.062l-1.07.357-.024.008c-.04.048-.073.1-.126.14l-1.276.943-.007.004a.819.819 0 0 1-.48.156h-1.842c-.535.5-.66 1.3-.301 1.94l.208.37 2.205-.655c.286.325.447.746.45 1.183a1.805 1.805 0 0 1-.594 1.344l-.633.572-4.545 1.52-2.77-1.835a4.49 4.49 0 0 0-3.273-.68l-3.819.674-.2.038-1.418.269 1.425-.27a24.586 24.586 0 0 0-.724 15.11 3.7 3.7 0 0 1-2.379-.908 3.683 3.683 0 0 0 3.08.86l.841-.151 1.544-2.316a3.279 3.279 0 0 1 2.728-1.46h9.606c1.096 0 2.12-.547 2.727-1.46l.09-.134a1.64 1.64 0 0 1 1.605-.712l3.535.525-6.203-8.055 1.488.496c.632.21 1.186.61 1.586 1.143l3.795 5.06a.82.82 0 0 0 1.17.147l2.344-1.886a2.867 2.867 0 0 0 1.16-2.304v-2.228a.41.41 0 0 0-.538-.39l-.912.303c-.333.11-.685.076-.99-.097a1.218 1.218 0 0 1-.595-.8l-.369-1.637 5.1 1.62-.522-1.95a5.738 5.738 0 0 1 .048-3.137l.771-2.56.001-.005a24.718 24.718 0 0 0-.609-1.077 23.743 23.743 0 0 0-.718-1.132L56 22.85a24.604 24.604 0 0 0-2.06-2.634l-.002.004-2.042 3.74a3.279 3.279 0 0 1-2.006 1.589ZM23.973 45.957Zm-.158-.189.057.07-.057-.07Zm.322.362Zm-2.109-4.939Zm.25-1.666-.017.047-.002.006v.002c.005-.019.013-.037.019-.055Zm-.238 2.108Zm.117.86Zm.328 1.084Z"/>
  <path fill="#FFD586" d="M26.677 47.188a24.595 24.595 0 0 1 .725-15.11l-1.425.27a2.85 2.85 0 0 0-2.022 2.806l.018.845-1.256 2.422c-.057.112-.11.224-.16.338l-.019.038a6.2 6.2 0 0 0-.262.728l-.017.054a6.083 6.083 0 0 0-.076.306c-.006.03-.016.06-.022.091-.013.063-.022.126-.034.19-.012.07-.027.142-.038.214l-.004.036c-.012.09-.02.18-.03.27a6.108 6.108 0 0 0-.027.505 6.102 6.102 0 0 0 .129 1.302 6.128 6.128 0 0 0 .914 2.183l.596.888c.047.07.097.138.148.204l.057.07a3.532 3.532 0 0 0 .364.386l.063.056a3.7 3.7 0 0 0 2.378.908Z"/>
  <path fill="#FFEDB9" d="M75 36.656a4.905 4.905 0 0 0-1.537-3.57 4.918 4.918 0 0 0-3.975 8.45 4.886 4.886 0 0 1 .594.038A4.919 4.919 0 0 0 75 36.656Zm-9.72 1.06-.022-.104.023.104Zm.289.894-.045-.107.045.106Zm-.088-.216Zm-.144-.447c-.01-.035-.02-.07-.028-.105l.028.105Zm.067.226Zm.262.647-.051-.108.05.108Zm1.926 2.076Zm-1.202-.992Zm.822.744Zm-.676-.586Zm-.266-.3Zm-.382-.538-.07-.119.07.119Zm-.116-.199-.059-.111c.02.037.039.074.06.11Zm1.26 1.487Zm.367.265Zm4.549-8.672Zm.614.305Zm-.199-.111Zm-7.127 5.181-.019-.101.019.1Zm1.457 2.738Zm6.062-7.69Zm.186.128Zm-6.082 7.713Zm6.262-7.579Zm-.963-.593Zm-6.982 4.783-.006-.08.006.08Zm.025.256c-.004-.031-.01-.063-.013-.095l.013.095Zm6.531-5.214Zm-.68-.188.138.03c-.046-.01-.091-.021-.138-.03Zm.232.052a4.9 4.9 0 0 1 .146.04l-.146-.04Zm.226.063Zm-.566-.135-.128-.022.128.022Zm-.254-.037-.115-.015c.039.004.077.01.115.015Zm-.268-.025-.091-.008.09.008Z"/>
  <path fill="#FFD586" d="M69.488 41.537a4.918 4.918 0 0 1 3.975-8.45 4.917 4.917 0 0 0-.168-.153l-.002-.002a4.662 4.662 0 0 0-.172-.141l-.006-.005a4.808 4.808 0 0 0-.174-.13l-.012-.01a5.011 5.011 0 0 0-.174-.118l-.019-.012a4.658 4.658 0 0 0-.174-.107l-.027-.015a4.786 4.786 0 0 0-.172-.095l-.036-.018a5.3 5.3 0 0 0-.169-.084l-.045-.02a5.006 5.006 0 0 0-.165-.072l-.056-.022a5.109 5.109 0 0 0-.16-.061l-.068-.023a4.93 4.93 0 0 0-.154-.05l-.08-.023-.146-.04c-.031-.008-.063-.014-.094-.021-.046-.011-.092-.022-.138-.031-.033-.007-.066-.012-.1-.018a.25.25 0 0 1-.008-.002l-.128-.022-.126-.016-.115-.014c-.05-.005-.102-.008-.153-.011-.03-.002-.06-.006-.091-.007a4.909 4.909 0 0 0-1.794.243A4.92 4.92 0 0 0 65.17 36.9c.001.027.004.054.006.08.003.054.007.108.012.16l.011.096c.006.048.011.095.018.142l.017.102a5.166 5.166 0 0 0 .075.362 5.43 5.43 0 0 0 .215.66l.044.107c.015.035.03.069.047.103l.05.107.048.094c.02.037.038.075.059.111.014.027.03.054.046.08l.069.12c.01.016.022.032.032.05a4.924 4.924 0 0 0 .472.63l.025.03.12.128.034.035.123.12.036.035c.043.04.086.078.13.116l.036.031c.045.039.09.076.137.113l.033.026c.049.038.097.074.147.11l.028.02c.052.037.105.073.159.108l.019.012c.057.037.115.073.174.108l.002.001c.568.334 1.21.557 1.894.64Z"/>
</svg>
